<svg width="24" height="24" viewBox="0 0 24 24"
    xmlns="http://www.w3.org/2000/svg">
    <g clip-path="url(#clip0_368_1415)">
        <path d="M16.317 0.423001L16.839 2.0295C17.0014 2.51785 17.2755 2.96157 17.6396 3.32535C18.0036 3.68913 18.4475 3.96294 18.936 4.125L20.544 4.647L20.5755 4.656C20.6994 4.69962 20.8067 4.78062 20.8826 4.88782C20.9585 4.99502 20.9993 5.12314 20.9993 5.2545C20.9993 5.38586 20.9585 5.51398 20.8826 5.62118C20.8067 5.72838 20.6994 5.80938 20.5755 5.853L18.969 6.375C18.4804 6.53717 18.0364 6.811 17.6721 7.17475C17.3078 7.5385 17.0334 7.98216 16.8705 8.4705L16.3485 10.0755C16.3049 10.1994 16.2239 10.3067 16.1167 10.3826C16.0095 10.4585 15.8814 10.4993 15.75 10.4993C15.6186 10.4993 15.4905 10.4585 15.3833 10.3826C15.2761 10.3067 15.1951 10.1994 15.1515 10.0755L14.6295 8.4705C14.4682 7.98027 14.1945 7.53459 13.8301 7.16915C13.4657 6.80371 13.0208 6.52865 12.531 6.366L10.923 5.844C10.7991 5.80038 10.6918 5.71938 10.6159 5.61218C10.54 5.50498 10.4992 5.37686 10.4992 5.2455C10.4992 5.11414 10.54 4.98602 10.6159 4.87882C10.6918 4.77162 10.7991 4.69062 10.923 4.647L12.531 4.125C13.0135 3.95848 13.4509 3.68271 13.8092 3.31921C14.1675 2.95571 14.437 2.51432 14.5965 2.0295L15.1185 0.424501C15.1618 0.300074 15.2428 0.192211 15.3501 0.115882C15.4575 0.039553 15.586 -0.00145721 15.7177 -0.00145721C15.8495 -0.00145721 15.978 0.039553 16.0854 0.115882C16.1927 0.192211 16.2737 0.298574 16.317 0.423001ZM23.6745 12.321L22.527 11.949C22.1776 11.8331 21.8601 11.6374 21.5997 11.3772C21.3393 11.1171 21.1432 10.7998 21.027 10.4505L20.655 9.3045C20.6239 9.2159 20.5661 9.13914 20.4895 9.08483C20.413 9.03052 20.3214 9.00134 20.2275 9.00134C20.1336 9.00134 20.042 9.03052 19.9655 9.08483C19.8889 9.13914 19.8311 9.2159 19.8 9.3045L19.425 10.4505C19.3115 10.7971 19.1193 11.1127 18.8635 11.3727C18.6077 11.6326 18.2952 11.8299 17.9505 11.949L16.803 12.321C16.7151 12.3527 16.6391 12.4108 16.5854 12.4873C16.5316 12.5638 16.5028 12.655 16.5028 12.7485C16.5028 12.842 16.5316 12.9332 16.5854 13.0097C16.6391 13.0862 16.7151 13.1443 16.803 13.176L17.9505 13.5495C18.3003 13.6659 18.6181 13.8624 18.8785 14.1234C19.1389 14.3843 19.3348 14.7025 19.4505 15.0525L19.8225 16.1985C19.8536 16.2871 19.9114 16.3639 19.988 16.4182C20.0645 16.4725 20.1561 16.5017 20.25 16.5017C20.3439 16.5017 20.4355 16.4725 20.512 16.4182C20.5886 16.3639 20.6464 16.2871 20.6775 16.1985L21.051 15.0525C21.1669 14.7033 21.3628 14.3861 21.6229 14.1259C21.8831 13.8658 22.2003 13.6699 22.5495 13.554L23.697 13.182C23.7849 13.1503 23.8609 13.0922 23.9146 13.0157C23.9684 12.9392 23.9972 12.848 23.9972 12.7545C23.9972 12.661 23.9684 12.5698 23.9146 12.4933C23.8609 12.4168 23.7849 12.3587 23.697 12.327L23.6745 12.321ZM20.253 18C19.9683 18 19.6869 17.9386 19.428 17.82C19.3019 18.3015 19.0197 18.7276 18.6256 19.0316C18.2315 19.3356 17.7477 19.5003 17.25 19.5H16.5V16.5H18.3405L18.0225 15.5205C17.9817 15.3944 17.9094 15.2809 17.8125 15.1905C17.7312 15.1107 17.6362 15.0462 17.532 15H16.5V14.6565L16.341 14.604C15.936 14.454 15.606 14.214 15.366 13.884C15.126 13.554 15.006 13.1625 15.006 12.756C15.006 12.471 15.066 12.186 15.186 11.931C14.9431 11.8697 14.714 11.7628 14.511 11.616C14.1547 11.3537 13.883 10.9929 13.7295 10.578L13.1895 8.94C13.0545 8.595 12.9195 8.4 12.7545 8.235L12.75 8.229V8.25C12.75 8.44891 12.671 8.63968 12.5303 8.78033C12.3897 8.92098 12.1989 9 12 9H7.5C7.30109 9 7.11032 8.92098 6.96967 8.78033C6.82902 8.63968 6.75 8.44891 6.75 8.25C6.75 8.05109 6.82902 7.86032 6.96967 7.71967C7.11032 7.57902 7.30109 7.5 7.5 7.5H11.145L10.455 7.272C10.005 7.122 9.645 6.837 9.39 6.477C9.135 6.117 9 5.6955 9 5.244C9 4.794 9.135 4.374 9.39 4.0125C9.645 3.6525 10.005 3.3825 10.425 3.231L11.145 3H5.625C4.92881 3 4.26113 3.27656 3.76884 3.76885C3.27656 4.26113 3 4.92881 3 5.625V17.25C3 18.2446 3.39509 19.1984 4.09835 19.9017C4.80161 20.6049 5.75544 21 6.75 21H17.25C18.1317 21 18.9851 20.6893 19.6605 20.1226C20.3359 19.5558 20.7899 18.7693 20.943 17.901C20.7196 17.9699 20.4868 18.0033 20.253 18ZM7.5 11.25H12C12.1989 11.25 12.3897 11.329 12.5303 11.4697C12.671 11.6103 12.75 11.8011 12.75 12C12.75 12.1989 12.671 12.3897 12.5303 12.5303C12.3897 12.671 12.1989 12.75 12 12.75H7.5C7.30109 12.75 7.11032 12.671 6.96967 12.5303C6.82902 12.3897 6.75 12.1989 6.75 12C6.75 11.8011 6.82902 11.6103 6.96967 11.4697C7.11032 11.329 7.30109 11.25 7.5 11.25ZM6.75 15.75C6.75 15.5511 6.82902 15.3603 6.96967 15.2197C7.11032 15.079 7.30109 15 7.5 15H9.75C9.94891 15 10.1397 15.079 10.2803 15.2197C10.421 15.3603 10.5 15.5511 10.5 15.75C10.5 15.9489 10.421 16.1397 10.2803 16.2803C10.1397 16.421 9.94891 16.5 9.75 16.5H7.5C7.30109 16.5 7.11032 16.421 6.96967 16.2803C6.82902 16.1397 6.75 15.9489 6.75 15.75Z" />
    </g>
    <defs>
        <clipPath id="clip0_368_1415">
            <rect width="24" height="24" fill="white"/>
        </clipPath>
    </defs>
</svg>
